<?xml version="1.0" standalone="no"?>
<!DOCTYPE svg PUBLIC "-//W3C//DTD SVG 20010904//EN"
 "http://www.w3.org/TR/2001/REC-SVG-20010904/DTD/svg10.dtd">
<svg version="1.0" xmlns="http://www.w3.org/2000/svg"
 width="51.000000pt" height="51.000000pt" viewBox="0 0 51.000000 51.000000"
 preserveAspectRatio="xMidYMid meet">

<g transform="translate(0.000000,51.000000) scale(0.100000,-0.100000)"
fill="#000000" stroke="none">
<path d="M128 499 c-21 -12 -24 -59 -6 -77 18 -18 53 -14 74 9 17 19 17 23 3
47 -16 29 -44 38 -71 21z"/>
<path d="M296 401 c-3 -38 -10 -80 -15 -92 -8 -22 -10 -20 -35 29 l-26 52 -65
0 c-52 0 -69 -4 -85 -20 -24 -24 -26 -57 -4 -81 13 -14 14 -24 5 -56 -15 -53
-14 -60 9 -66 18 -5 20 -14 20 -81 0 -62 3 -78 16 -83 30 -11 44 25 46 116 l2
86 5 -100 c6 -91 8 -100 26 -100 19 0 20 8 23 144 3 142 3 143 22 126 18 -16
20 -31 20 -146 l0 -128 95 0 c93 0 94 0 75 19 -29 29 -27 97 5 140 25 34 32
79 19 128 -5 19 -13 22 -54 22 -47 0 -47 0 -54 38 -3 20 -6 56 -6 80 0 34 -3
42 -19 42 -15 0 -19 -11 -25 -69z m-96 -46 c0 -8 -15 -12 -40 -12 -25 0 -40 4
-40 12 0 8 15 12 40 12 25 0 40 -4 40 -12z m-100 -26 c0 -11 -4 -18 -10 -14
-5 3 -7 12 -3 20 7 21 13 19 13 -6z m299 -249 c0 -14 -4 -32 -9 -40 -7 -11
-10 3 -9 45 0 43 3 54 9 40 5 -11 9 -31 9 -45z"/>
</g>
</svg>
