<svg xmlns="http://www.w3.org/2000/svg"  viewBox="0 0 50 50" width="50px" height="50px"><path d="M 25 4 C 11.488281 4 7.605469 12.765625 7.070313 17 L 5 17 C 3.953125 17 3 17.953125 3 19 L 3 26 C 3 27.046875 3.949219 28 5 28 C 4.984375 28.28125 4.960938 29.421875 5.191406 31 L 8.433594 31 L 11.433594 26 L 15.71875 26 L 17.71875 32 L 19.34375 32 L 22.34375 25 L 27.65625 25 L 30.65625 32 L 32.28125 32 L 34.28125 26 L 38.566406 26 L 41.566406 31 L 44.808594 31 C 45.0625 29.28125 45.003906 28.09375 45 28 C 46.046875 28 47 27.046875 47 26 L 47 19 C 47 17.953125 46.046875 17 45 17 L 42.933594 17 C 42.394531 12.765625 38.511719 4 25 4 Z M 25 6 C 27.210938 6 29 7.789063 29 10 C 29 12.210938 27.210938 14 25 14 C 22.789063 14 21 12.210938 21 10 C 21 7.789063 22.789063 6 25 6 Z M 18 16 L 20 18 L 22 18 C 22 20 21 21 19 21 C 18 21 16 21 16 18 C 16 17.101563 17 16 18 16 Z M 33 16 C 34 16 35 17.101563 35 18 C 35 21 33 21 32 21 C 30 21 29 20 29 18 L 31 18 Z M 5 19 L 7 19 L 7 26 L 5 26 Z M 43 19 L 45 19 L 45 26 L 43 26 Z M 23.65625 27 L 20.65625 34 L 16.28125 34 L 14.28125 28 L 12.566406 28 L 9.566406 33 L 5.59375 33 C 6.183594 35.304688 7.328125 38.039063 9.582031 40.425781 C 13.070313 44.125 18.257813 46 25 46 C 31.742188 46 36.929688 44.125 40.417969 40.425781 C 42.671875 38.039063 43.816406 35.300781 44.40625 33 L 40.433594 33 L 37.433594 28 L 35.71875 28 L 33.71875 34 L 29.34375 34 L 26.34375 27 Z M 25 36 C 26.105469 36 27 36.894531 27 38 C 27 39.105469 26.105469 40 25 40 C 23.894531 40 23 39.105469 23 38 C 23 36.894531 23.894531 36 25 36 Z"/></svg>