<?xml version="1.0" standalone="no"?>
<!DOCTYPE svg PUBLIC "-//W3C//DTD SVG 20010904//EN"
 "http://www.w3.org/TR/2001/REC-SVG-20010904/DTD/svg10.dtd">
<svg version="1.0" xmlns="http://www.w3.org/2000/svg"
 width="512.000000pt" height="512.000000pt" viewBox="0 0 512.000000 512.000000"
 preserveAspectRatio="xMidYMid meet">

<g transform="translate(0.000000,512.000000) scale(0.100000,-0.100000)"
fill="#000000" stroke="none">
<path d="M587 5100 c-108 -34 -191 -106 -241 -210 l-31 -65 0 -2265 0 -2265
32 -65 c52 -107 132 -177 239 -210 65 -20 89 -20 1224 -20 1125 0 1160 1 1222
20 112 35 194 107 246 217 l27 58 0 2265 0 2265 -31 65 c-35 74 -91 136 -158
175 -97 57 -53 55 -1311 54 -1103 0 -1163 -1 -1218 -19z m1335 -595 c141 -29
282 -126 359 -246 141 -221 108 -511 -80 -699 -275 -273 -738 -186 -900 171
-54 119 -64 235 -31 363 28 109 63 170 150 256 140 141 315 195 502 155z m9
-1675 c748 -86 1181 -894 838 -1565 -137 -268 -393 -474 -688 -553 -84 -22
-117 -25 -261 -26 -189 -1 -264 12 -415 73 -301 121 -539 384 -629 694 -96
331 -32 682 174 955 229 304 604 465 981 422z"/>
<path d="M1734 4330 c-185 -39 -317 -215 -301 -402 11 -134 99 -258 220 -314
54 -26 73 -29 157 -29 84 0 103 3 157 29 76 35 154 113 189 191 88 192 -10
428 -211 507 -54 21 -156 30 -211 18z"/>
<path d="M1685 2650 c-94 -14 -247 -68 -324 -113 -293 -172 -466 -491 -448
-822 28 -485 416 -855 897 -855 406 0 745 257 867 657 24 79 26 104 26 238 0
121 -4 165 -21 227 -106 389 -439 656 -837 673 -55 2 -127 0 -160 -5z m260
-538 c201 -79 299 -315 211 -507 -35 -78 -113 -156 -189 -191 -54 -26 -73 -29
-157 -29 -84 0 -103 3 -157 29 -121 56 -209 180 -220 314 -16 187 116 363 301
402 55 12 157 3 211 -18z"/>
<path d="M4299 3981 c-16 -16 -29 -40 -29 -53 0 -13 43 -183 95 -378 52 -195
95 -358 95 -361 0 -4 -22 -9 -49 -13 -121 -16 -271 -129 -331 -248 -24 -50
-30 -74 -30 -128 0 -136 69 -219 205 -250 194 -43 466 157 483 356 6 74 -3
113 -41 170 -25 38 -48 107 -108 334 -42 157 -75 286 -74 288 1 2 14 0 28 -3
22 -6 28 -19 60 -142 20 -74 43 -145 51 -159 43 -64 156 -29 156 49 0 50 -85
354 -105 377 -10 11 -50 29 -89 41 -153 44 -166 50 -166 71 0 31 -53 78 -90
78 -22 0 -41 -9 -61 -29z"/>
<path d="M3769 2221 c-16 -16 -29 -40 -29 -53 0 -13 43 -183 95 -378 52 -195
95 -358 95 -361 0 -4 -22 -9 -49 -13 -121 -16 -271 -129 -331 -248 -24 -50
-30 -74 -30 -128 0 -136 69 -219 205 -250 194 -43 466 157 483 356 6 74 -3
113 -41 170 -25 38 -48 107 -108 334 -42 157 -75 286 -74 288 1 2 14 0 28 -3
22 -6 28 -19 60 -142 20 -74 43 -145 51 -159 42 -64 156 -29 156 48 0 42 -78
337 -96 366 -18 27 -28 32 -161 72 -87 26 -103 34 -103 51 0 32 -53 79 -90 79
-22 0 -41 -9 -61 -29z"/>
</g>
</svg>
